<svg width="328" height="222" xmlns="http://www.w3.org/2000/svg" xmlns:xlink="http://www.w3.org/1999/xlink" xml:space="preserve" overflow="hidden"><defs><clipPath id="clip0"><rect x="871" y="228" width="328" height="222"/></clipPath></defs><g clip-path="url(#clip0)" transform="translate(-871 -228)"><path d="M9.03563 199.118-0.00915464 199.118-0.00915464 190.421 28.3519 190.421 28.3519 199.118 19.3094 199.118 19.3094 221.155 9.03563 221.155Z" fill="#005C34" transform="matrix(1.0022 0 0 1 871 228)"/><path d="M32.6752 190.421 58.8849 190.421 58.8849 198.85 42.7636 198.85 42.7636 201.967 57.7772 201.967 57.7772 209.385 42.7636 209.385 42.7636 212.722 59.0955 212.722 59.0955 221.149 32.6752 221.149Z" fill="#005C34" transform="matrix(1.0022 0 0 1 871 228)"/><path d="M65.5404 190.421 80.554 190.421C82.852 190.355 85.1448 190.673 87.3375 191.364 88.9373 191.891 90.3996 192.768 91.6173 193.932 92.528 194.831 93.2455 195.906 93.7252 197.093 94.2184 198.409 94.4569 199.807 94.4278 201.212L94.4278 201.301C94.494 203.327 93.9259 205.322 92.8029 207.009 91.6698 208.602 90.1421 209.872 88.3697 210.696L95.5264 221.144 83.8039 221.144 78.009 212.365 75.8141 212.365 75.8141 221.144 65.5404 221.144ZM80.2473 205.041C81.2733 205.099 82.2901 204.822 83.1447 204.251 83.8389 203.741 84.2334 202.918 84.1975 202.057L84.1975 201.97C84.2552 201.098 83.8567 200.258 83.1447 199.752 82.2888 199.227 81.2936 198.974 80.2908 199.026L75.8119 199.026 75.8119 205.041Z" fill="#005C34" transform="matrix(1.0022 0 0 1 871 228)"/><path d="M100.188 190.421 115.202 190.421C117.5 190.355 119.793 190.673 121.986 191.364 123.586 191.891 125.048 192.768 126.265 193.932 127.176 194.831 127.894 195.906 128.373 197.093 128.867 198.409 129.105 199.807 129.076 201.212L129.076 201.301C129.142 203.327 128.575 205.322 127.453 207.009 126.319 208.602 124.791 209.873 123.018 210.696L130.174 221.144 118.45 221.144 112.655 212.365 110.46 212.365 110.46 221.144 100.188 221.144ZM114.895 205.041C115.921 205.099 116.938 204.822 117.793 204.251 118.488 203.741 118.883 202.918 118.848 202.057L118.848 201.97C118.905 201.097 118.506 200.258 117.793 199.752 116.937 199.227 115.942 198.974 114.939 199.026L110.462 199.026 110.462 205.041Z" fill="#005C34" transform="matrix(1.0022 0 0 1 871 228)"/><path d="M145.987 190.199 156.171 190.199 169.123 221.149 157.97 221.149 156.348 217.029 145.591 217.029 144.009 221.149 133.024 221.149ZM153.8 209.735 150.992 202.272 148.182 209.735Z" fill="#005C34" transform="matrix(1.0022 0 0 1 871 228)"/><path d="M186.313 221.81C184.232 221.819 182.167 221.431 180.232 220.666 176.383 219.156 173.3 216.167 171.672 212.367 170.79 210.316 170.349 208.102 170.377 205.87L170.377 205.783C170.357 203.597 170.783 201.431 171.629 199.416 172.431 197.502 173.61 195.771 175.096 194.323 176.595 192.875 178.362 191.734 180.298 190.963 182.336 190.15 184.512 189.74 186.707 189.757 188.285 189.742 189.858 189.942 191.382 190.35 192.739 190.719 194.039 191.272 195.246 191.996 196.385 192.683 197.42 193.531 198.319 194.513 199.212 195.495 199.985 196.578 200.624 197.74L192.156 202.7C191.627 201.659 190.886 200.74 189.982 200.001 189.001 199.276 187.799 198.912 186.581 198.969 185.76 198.956 184.948 199.137 184.21 199.496 183.512 199.843 182.897 200.337 182.408 200.944 181.897 201.586 181.503 202.314 181.246 203.093 180.965 203.928 180.825 204.803 180.829 205.684L180.829 205.771C180.819 206.703 180.959 207.631 181.246 208.518 181.498 209.305 181.9 210.035 182.431 210.669 182.935 211.262 183.559 211.741 184.262 212.074 184.99 212.416 185.786 212.588 186.59 212.578 187.851 212.642 189.094 212.262 190.103 211.502 191.034 210.724 191.81 209.779 192.392 208.714L200.86 213.5C200.208 214.65 199.441 215.731 198.571 216.727 197.675 217.752 196.632 218.64 195.477 219.361 194.22 220.139 192.86 220.738 191.437 221.139 189.769 221.605 188.044 221.831 186.313 221.81Z" fill="#005C34" transform="matrix(1.0022 0 0 1 871 228)"/><path d="M213.326 210.264 201.736 190.419 213.239 190.419 218.503 200.516 223.815 190.419 235.187 190.419 223.597 210.131 223.597 221.149 213.324 221.149Z" fill="#005C34" transform="matrix(1.0022 0 0 1 871 228)"/><path d="M251.43 221.81C249.349 221.819 247.285 221.431 245.349 220.666 241.499 219.156 238.417 216.167 236.789 212.367 235.908 210.316 235.466 208.102 235.494 205.87L235.494 205.783C235.476 203.597 235.901 201.431 236.746 199.416 237.549 197.503 238.728 195.771 240.213 194.323 241.712 192.875 243.479 191.734 245.415 190.963 247.452 190.15 249.629 189.74 251.824 189.757 253.403 189.742 254.975 189.942 256.499 190.35 257.856 190.719 259.156 191.272 260.363 191.996 261.502 192.683 262.537 193.531 263.436 194.513 264.329 195.495 265.102 196.578 265.741 197.74L257.273 202.7C256.744 201.659 256.003 200.74 255.099 200.001 254.117 199.276 252.915 198.912 251.698 198.969 250.876 198.956 250.066 199.137 249.327 199.496 248.629 199.843 248.013 200.337 247.525 200.944 247.013 201.586 246.619 202.314 246.363 203.093 246.084 203.928 245.942 204.803 245.946 205.684L245.946 205.771C245.935 206.703 246.077 207.631 246.363 208.518 246.615 209.305 247.017 210.036 247.548 210.669 248.052 211.262 248.677 211.741 249.379 212.074 250.107 212.416 250.903 212.588 251.707 212.578 252.968 212.642 254.211 212.261 255.218 211.502 256.149 210.724 256.925 209.779 257.506 208.714L265.974 213.5C265.322 214.65 264.555 215.731 263.686 216.727 262.788 217.752 261.747 218.64 260.591 219.361 259.335 220.139 257.975 220.738 256.552 221.139 254.886 221.605 253.16 221.83 251.43 221.81Z" fill="#005C34" transform="matrix(1.0022 0 0 1 871 228)"/><path d="M270.764 190.421 281.038 190.421 281.038 212.374 295.482 212.374 295.482 221.153 270.764 221.153Z" fill="#005C34" transform="matrix(1.0022 0 0 1 871 228)"/><path d="M299.757 190.421 325.967 190.421 325.967 198.85 309.855 198.85 309.855 201.967 324.868 201.967 324.868 209.385 309.855 209.385 309.855 212.722 326.184 212.722 326.184 221.149 299.757 221.149Z" fill="#005C34" transform="matrix(1.0022 0 0 1 871 228)"/><path d="M239.497 44.178 246.754 54.0765 178.93 63.3936 204.769-0.00228866 213.191 10.997C213.191 10.997 223.064 5.39666 243.234 5.06709 288.616 4.32328 325.706 41.6856 325.706 87.4108 325.809 132.859 289.049 169.785 243.6 169.887 243.566 169.887 243.529 169.887 243.495 169.887 198.18 169.887 169.246 127.858 165.504 123.038 158.547 114.083 124.846 72.2301 122.908 69.7126 120.969 67.1951 106.212 45.1278 82.7648 45.1278 59.6768 45.1477 40.9764 63.8804 40.9963 86.9684 40.9963 87.0297 40.9965 87.0908 40.9968 87.1522 41.1474 102.724 49.6511 117.014 63.2654 124.574 72.8778 130.238 86.2733 129.289 88.1889 128.989L81.2772 119.795 148.335 110.689 123.251 173.872 114.646 162.051C114.646 162.051 103.216 167.686 82.8541 168.381 37.2022 169.938 0.537835 131.426 0.537835 85.7607 0.49763 40.7272 36.9719 4.18772 82.0054 4.14753 82.2128 4.14733 82.4201 4.14794 82.6275 4.14934 127.883 4.14934 147.06 35.1744 149.031 37.3349 151.001 39.4954 202.787 106.242 205.419 109.531 213.769 121.589 227.507 128.779 242.175 128.769 265.558 128.685 284.446 109.661 284.361 86.277 284.279 62.8933 265.253 44.0052 241.87 44.0892 241.078 44.0922 240.289 44.1171 239.499 44.1643" fill="#005C34" transform="matrix(1.0022 0 0 1 871 228)"/><path d="M306.177 157.094C307.097 157.089 308.01 157.268 308.859 157.62 309.704 157.98 310.468 158.503 311.109 159.158 311.738 159.784 312.23 160.533 312.558 161.357 313.228 163.054 313.224 164.944 312.542 166.637 312.198 167.466 311.688 168.215 311.043 168.837 310.393 169.473 309.628 169.978 308.788 170.324 307.96 170.661 307.072 170.835 306.177 170.835 305.273 170.836 304.376 170.658 303.54 170.308 302.7 169.942 301.941 169.416 301.302 168.759 300.67 168.131 300.171 167.383 299.835 166.56 299.263 165.157 299.174 163.604 299.579 162.145 299.75 161.532 300.002 160.946 300.329 160.401 300.92 159.384 301.771 158.542 302.794 157.963 303.826 157.382 304.991 157.081 306.175 157.091M306.198 158.236C305.451 158.227 304.712 158.365 304.021 158.641 303.341 158.919 302.726 159.333 302.211 159.856 301.657 160.398 301.215 161.044 300.911 161.756 300.329 163.145 300.32 164.708 300.888 166.104 301.174 166.788 301.588 167.41 302.11 167.935 302.646 168.481 303.282 168.915 303.987 169.212 304.678 169.513 305.422 169.669 306.175 169.67 306.912 169.67 307.644 169.523 308.324 169.237 309.031 168.942 309.676 168.521 310.232 167.994 310.763 167.481 311.189 166.867 311.482 166.189 311.77 165.515 311.919 164.791 311.921 164.058 311.928 163.286 311.791 162.52 311.516 161.799 310.644 159.63 308.534 158.216 306.198 158.236M303.339 160.012 306.314 160.012C307.168 159.954 308.019 160.147 308.763 160.568 309.308 160.929 309.619 161.554 309.58 162.206 309.594 162.676 309.436 163.134 309.136 163.495 308.816 163.865 308.385 164.121 307.909 164.227L309.619 167.631 307.559 167.631 306.099 164.516 305.184 164.516 305.184 167.631 303.339 167.631ZM305.184 161.188 305.184 163.394 306.099 163.394C306.513 163.426 306.93 163.337 307.296 163.138 307.555 162.949 307.697 162.64 307.674 162.321 307.699 161.983 307.541 161.657 307.262 161.465 306.877 161.253 306.44 161.156 306.001 161.188Z" fill="#005C34" transform="matrix(1.0022 0 0 1 871 228)"/></g></svg>